<svg width="32" height="32" viewBox="0 0 100 100" xmlns="http://www.w3.org/2000/svg">
  <defs>
    <!-- Premium gradient background -->
    <linearGradient id="bg" x1="0%" y1="0%" x2="100%" y2="100%">
      <stop offset="0%" stop-color="#2563eb"/>
      <stop offset="100%" stop-color="#1d4ed8"/>
    </linearGradient>

    <!-- Subtle top highlight for depth -->
    <linearGradient id="highlight" x1="0%" y1="0%" x2="0%" y2="100%">
      <stop offset="0%" stop-color="rgba(255,255,255,0.15)"/>
      <stop offset="40%" stop-color="rgba(255,255,255,0)"/>
    </linearGradient>

    <!-- Paddle gradient - rich red -->
    <linearGradient id="paddleGrad" x1="0%" y1="0%" x2="100%" y2="100%">
      <stop offset="0%" stop-color="#ef4444"/>
      <stop offset="100%" stop-color="#dc2626"/>
    </linearGradient>

    <!-- Handle gradient - warm brown -->
    <linearGradient id="handleGrad" x1="0%" y1="0%" x2="100%" y2="0%">
      <stop offset="0%" stop-color="#d97706"/>
      <stop offset="50%" stop-color="#f59e0b"/>
      <stop offset="100%" stop-color="#d97706"/>
    </linearGradient>

    <!-- Drop shadow filter -->
    <filter id="shadow" x="-30%" y="-30%" width="160%" height="160%">
      <feDropShadow dx="1" dy="2" stdDeviation="2" flood-color="#000" flood-opacity="0.25"/>
    </filter>

    <!-- Ball shadow -->
    <filter id="ballShadow" x="-50%" y="-50%" width="200%" height="200%">
      <feDropShadow dx="0.5" dy="1" stdDeviation="1" flood-color="#000" flood-opacity="0.2"/>
    </filter>
  </defs>

  <!-- Background with rounded corners (22% radius) -->
  <rect width="100" height="100" rx="22" fill="url(#bg)"/>

  <!-- Highlight overlay -->
  <rect width="100" height="50" rx="22" fill="url(#highlight)"/>

  <!-- Paddle group with shadow -->
  <g filter="url(#shadow)">
    <!-- Handle -->
    <rect x="43" y="62" width="14" height="26" rx="4" fill="url(#handleGrad)"/>
    <rect x="45" y="64" width="10" height="22" rx="3" fill="#fbbf24" opacity="0.3"/>

    <!-- Paddle face (ellipse for perspective) -->
    <ellipse cx="50" cy="42" rx="26" ry="24" fill="url(#paddleGrad)"/>

    <!-- Inner rubber surface -->
    <ellipse cx="50" cy="42" rx="22" ry="20" fill="#f87171" opacity="0.6"/>

    <!-- Subtle shine on paddle -->
    <ellipse cx="44" cy="36" rx="8" ry="6" fill="white" opacity="0.15"/>
  </g>

  <!-- Ping pong ball with motion effect -->
  <g filter="url(#ballShadow)">
    <circle cx="26" cy="24" r="9" fill="white"/>
    <circle cx="26" cy="24" r="9" fill="none" stroke="#e5e7eb" stroke-width="0.5"/>
    <!-- Subtle highlight on ball -->
    <circle cx="24" cy="22" r="3" fill="white" opacity="0.8"/>
  </g>

  <!-- Motion lines -->
  <g stroke="#fbbf24" stroke-width="2" stroke-linecap="round" opacity="0.7">
    <line x1="14" y1="18" x2="8" y2="14"/>
    <line x1="13" y1="24" x2="6" y2="24"/>
    <line x1="14" y1="30" x2="8" y2="34"/>
  </g>
</svg>